<svg class="img-fluid" id="outputsvg" xmlns="http://www.w3.org/2000/svg" style="transform: none; transform-origin: 50% 50%; cursor: move; max-height: 421.48px;" width="692" height="692" viewBox="0 0 6920 6920"><g id="l5Iu3biKFy8tVRJKMBYQAqH" fill="rgb(255,0,0)" style="transform: none;"><g style="transform: none;"><path id="pczvIRerQ" d="M3280 5935 l0 -505 -32 -1 c-18 0 -40 -2 -48 -3 -8 -2 -42 -6 -75 -10 -121 -15 -187 -27 -300 -57 -109 -30 -274 -95 -394 -157 -111 -57 -217 -120 -232 -138 -6 -8 -16 -14 -21 -14 -19 0 -210 -162 -289 -245 -172 -182 -283 -341 -387 -555 -98 -202 -155 -392 -185 -615 l-13 -90 -459 -2 -460 -2 0 -88 0 -88 458 -3 457 -2 0 -88 c0 -93 19 -253 44 -368 14 -67 74 -262 96 -311 6 -13 14 -33 19 -45 27 -65 103 -218 125 -251 14 -21 26 -40 26 -43 0 -9 120 -175 173 -239 62 -75 216 -225 293 -286 195 -154 417 -273 658 -354 86 -29 218 -63 266 -69 19 -2 67 -9 105 -15 39 -6 93 -12 120 -14 l50 -3 5 -408 5 -408 85 0 85 -1 5 408 5 409 40 2 c211 12 452 67 650 149 17 6 46 18 65 26 47 18 165 79 220 114 25 16 70 44 100 64 118 75 291 230 420 376 41 47 170 220 170 228 0 3 11 22 24 42 23 33 112 210 150 296 25 57 74 211 95 302 30 122 43 217 56 400 l7 87 454 0 455 0 -3 90 -3 91 -460 2 -460 2 -8 70 c-12 117 -53 299 -92 410 -29 82 -64 163 -103 240 -25 50 -52 104 -60 120 -25 49 -136 208 -200 287 -55 66 -185 197 -288 289 -41 37 -199 149 -210 149 -3 0 -20 11 -37 24 -67 50 -319 162 -478 211 -70 22 -274 64 -348 71 -36 4 -73 8 -81 10 -8 1 -30 3 -47 3 l-33 1 0 505 0 505 -90 0 -90 0 0 -505z m0 -894 l0 -199 -57 -7 c-114 -13 -238 -38 -278 -55 -11 -5 -49 -19 -85 -31 -36 -12 -69 -25 -74 -30 -6 -5 -15 -9 -21 -9 -5 0 -44 -18 -85 -40 -117 -64 -158 -92 -271 -186 -86 -73 -168 -161 -247 -265 -118 -157 -232 -434 -258 -630 l-7 -49 -199 0 -199 0 7 58 c7 58 54 255 79 327 62 185 201 451 291 562 19 23 34 46 34 52 0 6 3 11 8 11 4 0 31 31 61 68 30 37 78 87 108 112 29 25 67 57 84 71 31 28 183 132 234 161 27 15 228 115 280 139 30 14 237 80 260 84 11 1 63 12 115 23 90 20 112 23 188 30 l32 3 0 -200z m323 184 c139 -21 334 -71 417 -107 14 -6 34 -14 45 -18 72 -26 276 -133 360 -188 247 -163 389 -312 550 -576 123 -201 209 -423 255 -655 31 -158 52 -141 -179 -141 l-198 0 -6 53 c-15 127 -60 262 -144 432 -53 108 -58 117 -157 248 -88 117 -290 295 -412 363 -199 112 -405 179 -606 200 l-68 7 0 198 c0 231 -18 208 143 184z m-321 -737 l3 -212 85 0 85 -1 3 214 2 213 68 -7 c140 -14 399 -99 492 -162 19 -13 40 -23 47 -23 7 0 13 -4 13 -10 0 -5 5 -10 11 -10 19 0 167 -111 228 -170 99 -95 211 -258 278 -400 38 -80 98 -268 108 -333 l6 -48 -210 3 -211 3 0 -92 0 -93 223 0 223 0 -8 -82 c-13 -142 -52 -310 -93 -403 -7 -16 -23 -55 -36 -85 -74 -175 -230 -376 -382 -493 -84 -63 -96 -72 -157 -105 -19 -10 -51 -28 -70 -39 -19 -11 -48 -25 -65 -31 -161 -59 -208 -75 -279 -91 -44 -11 -105 -22 -133 -26 l-53 -7 0 216 0 216 -90 0 -90 0 0 -215 c0 -118 -2 -215 -4 -215 -25 0 -195 36 -260 54 -256 75 -511 233 -658 409 -186 224 -311 529 -334 818 l-7 79 209 2 209 3 0 89 0 88 -197 -1 c-126 -1 -198 2 -198 8 0 44 76 294 107 356 9 17 20 39 26 50 35 67 72 132 83 146 8 8 14 19 14 23 0 11 109 146 152 188 20 20 54 49 75 65 21 15 41 32 44 36 4 5 15 14 26 20 11 7 38 24 59 38 165 110 454 216 621 227 l33 3 2 -213z m-1394 -1190 c4 -132 19 -230 57 -366 63 -232 239 -513 424 -677 31 -27 65 -58 75 -67 30 -28 136 -98 146 -98 6 0 10 -3 10 -7 0 -5 10 -13 23 -19 12 -5 40 -20 62 -32 86 -47 187 -86 350 -133 38 -11 91 -18 178 -26 l67 -6 0 -204 0 -204 -32 6 c-18 3 -62 9 -98 15 -148 22 -286 56 -380 92 -30 11 -64 24 -75 28 -29 11 -284 138 -327 164 -20 12 -45 29 -56 39 -10 9 -22 17 -26 17 -14 0 -172 127 -233 187 -89 87 -179 200 -248 312 -5 9 -18 28 -27 42 -9 14 -46 84 -82 156 -116 231 -190 499 -211 766 l-7 77 204 0 204 0 2 -62z m3382 25 c-1 -122 -52 -388 -105 -548 -38 -112 -144 -342 -190 -409 -14 -20 -25 -39 -25 -41 0 -14 -160 -226 -201 -267 -10 -10 -23 -26 -31 -36 -7 -10 -62 -58 -123 -105 -142 -112 -162 -127 -168 -127 -3 0 -41 -22 -84 -48 -127 -78 -235 -126 -403 -180 -120 -39 -226 -66 -300 -77 -19 -3 -46 -7 -60 -10 -14 -2 -46 -7 -72 -10 l-48 -6 0 201 c0 152 3 202 13 205 6 2 41 6 77 9 231 18 473 114 725 288 88 60 310 296 338 358 4 8 27 47 52 85 24 39 44 73 45 77 0 4 13 36 29 70 75 165 121 360 121 513 0 45 3 85 7 88 3 4 96 7 205 7 l198 0 0 -37z"></path></g></g></svg>
